
<svg version="1.1" xmlns="http://www.w3.org/2000/svg" width="1536" height="1536" viewBox="0 0 1536 1536">

<rect width="1536" height="1536" fill="#ffffff" />

<g transform="translate(0,1904) scale(0.1,-0.1)" stroke="none">
	<path
		d="M1288 18079 c-23 -13 -23 -34 6 -236 129 -886 214 -1828 267 -2953
			17 -365 23 -1560 10 -1975 -64 -2061 -304 -3946 -746 -5849 -30 -131 -55 -244
			-55 -252 0 -7 7 -20 16 -28 14 -14 173 -16 1605 -16 1077 0 1597 3 1610 10 19
			11 19 85 19 5650 0 5565 0 5639 -19 5650 -27 14 -2689 13 -2713 -1z"
		fill="#e60000"
	/>
	<path
		d="M6822 18074 l-22 -15 0 -5628 c0 -4728 2 -5630 14 -5640 10 -8 344
			-10 1247 -9 l1234 3 3 5640 c2 5294 1 5641 -15 5653 -13 9 -275 12 -1228 12
			-1079 0 -1213 -2 -1233 -16z"
		fill="#009b63"
	/>
	<path
		d="M12090 18054 c-7 -16 -10 -2010 -10 -5624 0 -3614 3 -5608 10 -5624
			l10 -26 1234 0 c1211 0 1235 0 1246 19 7 14 10 1782 10 5631 0 3849 -3 5617
			-10 5631 -11 19 -35 19 -1246 19 l-1234 0 -10 -26z"
		fill="#0097e0"
	/>
</g>
</svg>
